<svg width="40" height="40" viewBox="0 0 40 40" fill="none" xmlns="http://www.w3.org/2000/svg">
<rect width="40" height="40" fill="#002FA7"/>
<path d="M13.1564 26.2157C12.3644 26.2157 11.6444 26.0657 10.9964 25.7657C10.3484 25.4657 9.79639 25.0337 9.34039 24.4697C8.88439 23.9057 8.53039 23.2217 8.27839 22.4177C8.02639 21.6137 7.90039 20.7137 7.90039 19.7177C7.90039 18.6737 8.02639 17.7497 8.27839 16.9457C8.53039 16.1417 8.87839 15.4637 9.32239 14.9117C9.77839 14.3597 10.3244 13.9397 10.9604 13.6517C11.5964 13.3637 12.2984 13.2197 13.0664 13.2197C13.8464 13.2197 14.4944 13.3517 15.0104 13.6157C15.5384 13.8677 15.8864 14.1857 16.0544 14.5697H16.1264V13.4357H17.4224V17.1077H16.1264V16.1717C16.1264 15.5717 15.8624 15.0917 15.3344 14.7317C14.8064 14.3597 14.1164 14.1737 13.2644 14.1737C12.6284 14.1737 12.0764 14.2937 11.6084 14.5337C11.1524 14.7617 10.7744 15.0797 10.4744 15.4877C10.1864 15.8837 9.97039 16.3517 9.82639 16.8917C9.69439 17.4197 9.62839 17.9777 9.62839 18.5657V20.7437C9.62839 21.4037 9.71239 21.9977 9.88039 22.5257C10.0604 23.0537 10.3124 23.5097 10.6364 23.8937C10.9724 24.2657 11.3804 24.5537 11.8604 24.7577C12.3404 24.9617 12.8864 25.0637 13.4984 25.0637C14.3504 25.0637 15.0644 24.8417 15.6404 24.3977C16.2164 23.9537 16.6364 23.3897 16.9004 22.7057L17.6024 23.0477C17.4944 23.3957 17.3204 23.7557 17.0804 24.1277C16.8404 24.4997 16.5344 24.8417 16.1624 25.1537C15.8024 25.4657 15.3704 25.7237 14.8664 25.9277C14.3624 26.1197 13.7924 26.2157 13.1564 26.2157Z" fill="white"/>
<path d="M19.6798 25.1717H21.0298V14.2637H19.6798V13.4357H23.9278V14.2637H22.5778V20.2757H22.6498L24.3238 18.3857L28.1038 14.2637H26.6638V13.4357H30.5338V14.2637H29.3278L25.4398 18.4577L29.7778 25.1717H31.0198V25.9997H26.7178V25.1717H27.9958L24.3598 19.5737L22.5778 21.4997V25.1717H23.9278V25.9997H19.6798V25.1717Z" fill="white"/>
<path fill-rule="evenodd" clip-rule="evenodd" d="M3 3H37V23H39V1H1V39H39V33H37V37H3V3ZM39 30H37H36V26H37H39H40V30H39Z" fill="white"/>
</svg>
